<svg width="53" height="53" viewBox="0 0 53 53" fill="none" xmlns="http://www.w3.org/2000/svg">
<path fill-rule="evenodd" clip-rule="evenodd" d="M11.6885 11.6888C12.551 10.8264 13.9492 10.8264 14.8116 11.6888L26.5001 23.3773L38.1886 11.6888C39.0509 10.8264 40.4492 10.8264 41.3116 11.6888C42.1739 12.5512 42.1739 13.9494 41.3116 14.8119L29.6231 26.5003L41.3116 38.1888C42.1739 39.0512 42.1739 40.4495 41.3116 41.3118C40.4492 42.1742 39.0509 42.1742 38.1886 41.3118L26.5001 29.6233L14.8116 41.3118C13.9492 42.1742 12.551 42.1742 11.6885 41.3118C10.8261 40.4495 10.8261 39.0512 11.6885 38.1888L23.3771 26.5003L11.6885 14.8119C10.8261 13.9494 10.8261 12.5512 11.6885 11.6888Z" fill="#0F1729"/>
</svg>
