<?xml version="1.0" encoding="UTF-8"?>
<svg xmlns="http://www.w3.org/2000/svg" viewBox="0 0 941.66 319.1">
  <defs>
    <style>
      .cls-1 {
        fill: #231f20;
      }

      .cls-2 {
        fill: #fff;
      }
    </style>
  </defs>
  <g id="Layer_2" data-name="Layer 2">
    <g>
      <path class="cls-1" d="M366.45,90.21v22.73h-13.12l-.7-9.55h-15.7v60.12l9.14,1.76v10.25h-35.39v-10.25l9.14-1.76v-60.12h-15.64l-.7,9.55h-13.07v-22.73h76.05Z"/>
      <path class="cls-1" d="M397.56,176.76c-9.14,0-16.45-2.93-21.91-8.79-5.47-5.86-8.2-13.3-8.2-22.32v-2.34c0-9.41,2.59-17.17,7.76-23.26,5.18-6.09,12.12-9.12,20.83-9.08,8.55,0,15.2,2.58,19.92,7.73,4.73,5.16,7.09,12.13,7.09,20.92v9.32h-37.85l-.12.35c.31,4.18,1.71,7.62,4.19,10.31,2.48,2.7,5.85,4.04,10.11,4.04,3.79,0,6.93-.38,9.43-1.14,2.5-.76,5.23-1.96,8.2-3.6l4.63,10.55c-2.62,2.07-6.01,3.81-10.17,5.21s-8.8,2.11-13.92,2.11ZM396.04,124.14c-3.16,0-5.66,1.21-7.5,3.63-1.84,2.42-2.97,5.61-3.4,9.55l.18.29h20.98v-1.52c0-3.63-.85-6.53-2.55-8.7s-4.27-3.25-7.71-3.25Z"/>
      <path class="cls-1" d="M471.5,175.52c-.47-1.05-.88-2.14-1.23-3.25s-.62-2.24-.82-3.37c-2.03,2.34-4.5,4.24-7.41,5.68-2.91,1.44-6.24,2.17-9.99,2.17-6.21,0-11.14-1.69-14.79-5.07-3.65-3.38-5.48-7.98-5.48-13.8s2.38-10.53,7.15-13.77c4.77-3.24,11.76-4.86,20.98-4.86h8.73v-6.21c0-3.05-.88-5.41-2.64-7.09-1.76-1.68-4.36-2.52-7.79-2.52-1.95,0-3.69.23-5.21.67-1.52.45-2.75.99-3.69,1.61l-1.11,6.8h-12.89l.06-14.06c3.12-2.11,6.71-3.89,10.75-5.33,4.04-1.44,8.45-2.17,13.21-2.17,7.85,0,14.23,1.92,19.13,5.77,4.9,3.85,7.35,9.33,7.35,16.44v26.19c0,.98,0,1.9.03,2.75.02.86.09,1.68.21,2.46l5.21.7v10.25h-19.75ZM456.68,164.1c2.58,0,4.92-.56,7.03-1.67s3.75-2.51,4.92-4.19v-9.67h-8.73c-3.63,0-6.39.85-8.26,2.55s-2.81,3.74-2.81,6.12c0,2.15.69,3.83,2.08,5.04,1.39,1.21,3.31,1.82,5.77,1.82Z"/>
      <path class="cls-1" d="M526.82,163.63c3.05,0,5.49-.89,7.32-2.67,1.84-1.78,2.75-4.15,2.75-7.12h15.47l.18.35c.16,6.41-2.25,11.77-7.21,16.08-4.96,4.32-11.13,6.47-18.52,6.47-9.45,0-16.74-2.99-21.86-8.96-5.12-5.98-7.68-13.65-7.68-23.03v-1.76c0-9.34,2.63-17.01,7.88-23.03,5.25-6.02,12.74-9.02,22.47-9.02,5.12,0,9.71.76,13.77,2.29,4.06,1.52,7.44,3.67,10.14,6.45l.23,16.93h-13.89l-2.81-9.9c-.86-.74-1.91-1.36-3.16-1.85-1.25-.49-2.68-.73-4.28-.73-4.84,0-8.26,1.76-10.25,5.27s-2.99,8.05-2.99,13.59v1.76c0,5.66.92,10.22,2.75,13.68,1.84,3.46,5.06,5.19,9.67,5.19Z"/>
      <path class="cls-1" d="M559.34,165.27l8.26-1.76v-67.32l-9.14-1.76v-10.31h26.19v36.09c1.99-2.93,4.43-5.2,7.32-6.83,2.89-1.62,6.09-2.43,9.61-2.43,6.64,0,11.84,2.2,15.62,6.59,3.77,4.39,5.65,11.18,5.65,20.36v25.61l8.2,1.76v10.25h-32.7v-10.25l7.38-1.76v-25.72c0-4.92-.87-8.41-2.61-10.46-1.74-2.05-4.33-3.08-7.76-3.08-2.38,0-4.46.43-6.24,1.29-1.78.86-3.27,2.07-4.48,3.63v34.34l7.38,1.76v10.25h-32.7v-10.25Z"/>
      <path class="cls-1" d="M703.48,90.21c10.04,0,17.87,1.95,23.5,5.86,5.62,3.91,8.44,9.75,8.44,17.52,0,3.95-1.05,7.47-3.13,10.58-2.09,3.11-5.13,5.44-9.11,7,5.12,1.09,8.96,3.44,11.51,7.03,2.56,3.59,3.84,7.75,3.84,12.48,0,8.17-2.7,14.35-8.09,18.54-5.39,4.2-13.03,6.3-22.91,6.3h-41.95v-10.25l9.08-1.76v-61.23l-9.08-1.76v-10.31h37.91ZM691.76,125.95h12.3c4.57,0,8.09-.94,10.55-2.81s3.69-4.61,3.69-8.2c0-3.94-1.24-6.86-3.72-8.73-2.48-1.88-6.18-2.81-11.1-2.81h-11.72v22.56ZM691.76,137.79v24.61h15.76c4.53,0,7.99-.99,10.37-2.96,2.38-1.97,3.57-4.89,3.57-8.76,0-4.18-1.02-7.37-3.05-9.58-2.03-2.21-5.24-3.31-9.61-3.31h-17.05Z"/>
      <path class="cls-1" d="M785.68,175.52c-.47-1.05-.88-2.14-1.23-3.25s-.62-2.24-.82-3.37c-2.03,2.34-4.5,4.24-7.41,5.68-2.91,1.44-6.24,2.17-9.99,2.17-6.21,0-11.14-1.69-14.79-5.07-3.65-3.38-5.48-7.98-5.48-13.8s2.38-10.53,7.15-13.77c4.77-3.24,11.76-4.86,20.98-4.86h8.73v-6.21c0-3.05-.88-5.41-2.64-7.09-1.76-1.68-4.36-2.52-7.79-2.52-1.95,0-3.69.23-5.21.67-1.52.45-2.75.99-3.69,1.61l-1.11,6.8h-12.89l.06-14.06c3.12-2.11,6.71-3.89,10.75-5.33,4.04-1.44,8.45-2.17,13.21-2.17,7.85,0,14.23,1.92,19.13,5.77,4.9,3.85,7.35,9.33,7.35,16.44v26.19c0,.98,0,1.9.03,2.75.02.86.09,1.68.21,2.46l5.21.7v10.25h-19.75ZM770.86,164.1c2.58,0,4.92-.56,7.03-1.67s3.75-2.51,4.92-4.19v-9.67h-8.73c-3.63,0-6.39.85-8.26,2.55s-2.81,3.74-2.81,6.12c0,2.15.69,3.83,2.08,5.04,1.39,1.21,3.31,1.82,5.77,1.82Z"/>
      <path class="cls-1" d="M841,163.63c3.05,0,5.49-.89,7.32-2.67,1.84-1.78,2.75-4.15,2.75-7.12h15.47l.18.35c.16,6.41-2.25,11.77-7.21,16.08-4.96,4.32-11.13,6.47-18.52,6.47-9.45,0-16.74-2.99-21.86-8.96-5.12-5.98-7.68-13.65-7.68-23.03v-1.76c0-9.34,2.63-17.01,7.88-23.03,5.25-6.02,12.74-9.02,22.47-9.02,5.12,0,9.71.76,13.77,2.29,4.06,1.52,7.44,3.67,10.14,6.45l.23,16.93h-13.89l-2.81-9.9c-.86-.74-1.91-1.36-3.16-1.85-1.25-.49-2.68-.73-4.28-.73-4.84,0-8.26,1.76-10.25,5.27s-2.99,8.05-2.99,13.59v1.76c0,5.66.92,10.22,2.75,13.68,1.84,3.46,5.06,5.19,9.67,5.19Z"/>
      <path class="cls-1" d="M872.64,94.43v-10.31h26.19v52.97h3.81l9.84-13.89-5.57-.76v-10.31h31.17v10.31l-7.5,1.7-11.43,15.7,16,24.08,6.5,1.35v10.25h-29.3v-10.25l3.52-.59-9.73-15.7h-7.32v14.53l7.38,1.76v10.25h-32.7v-10.25l8.26-1.76v-67.32l-9.14-1.76Z"/>
    </g>
  </g>
  <g id="Layer_4" data-name="Layer 4">
    <g>
      <g>
        <path class="cls-1" d="M185.73,105.85c-.29,0-.58-.15-.75-.42-.26-.41-.14-.96.28-1.22,3.22-2.02,5.12-3.22,6.88-4.33,2.25-1.42,4.27-2.7,8.51-5.35,6.02-3.71,12.24-7.55,17.41-13.25,7.34-8.01,11.7-18.68,11.96-29.27.46-6.93-2.13-13.97-6.75-18.41-3.66-3.51-8.22-5.08-13.21-4.55-4.54.48-7.16,2.08-11.51,4.75-1.05.64-2.23,1.37-3.54,2.14-2.98,1.81-5.94,3.6-8.93,5.42l-4.14,2.51c-4.21,2.55-8.56,5.19-12.95,7.85-10.66,6.46-21.69,13.14-31.24,18.98-.42.26-.34-.37-.59-.78-.26-.42-.75-.47-.33-.73,9.55-5.84,20.58-12.52,31.25-18.99,4.39-2.66,8.75-5.3,12.95-7.85l4.14-2.51c3-1.82,5.95-3.61,8.95-5.43,1.31-.77,2.48-1.49,3.52-2.13,4.4-2.7,7.31-4.49,12.25-5,5.52-.59,10.58,1.15,14.62,5.04,4.99,4.79,7.78,12.36,7.3,19.77-.27,10.98-4.8,22.07-12.42,30.39-5.34,5.88-11.67,9.79-17.79,13.56-4.23,2.65-6.25,3.93-8.5,5.34-1.76,1.11-3.66,2.31-6.88,4.34-.15.09-.31.14-.47.14Z"/>
        <path class="cls-1" d="M185.73,107.35c-.83,0-1.58-.42-2.02-1.12-.7-1.11-.36-2.59.75-3.29,3.22-2.02,5.12-3.22,6.88-4.33l.22-.14c2.16-1.37,4.19-2.65,8.29-5.22,5.94-3.66,12.07-7.45,17.1-12.99,7.1-7.75,11.32-18.06,11.57-28.3.43-6.55-1.98-13.15-6.29-17.29-3.33-3.19-7.48-4.63-12.01-4.14-4.21.44-6.58,1.9-10.88,4.54-1.05.65-2.25,1.38-3.57,2.15-2.96,1.8-5.92,3.59-8.92,5.41l-17.1,10.36c-10.67,6.47-21.69,13.14-31.24,18.98-.67.41-1.25.28-1.55.17-.79-.31-1-1.04-1.09-1.36,0-.02-.01-.04-.02-.06-.27-.23-.77-.7-.71-1.48.02-.32.17-.91.87-1.35,9.37-5.73,20.18-12.28,30.63-18.61l.62-.38c4.39-2.66,8.75-5.3,12.95-7.85l5.09-3.09c2.67-1.62,5.32-3.22,7.99-4.85,1.32-.77,2.49-1.49,3.52-2.12,4.41-2.71,7.6-4.66,12.88-5.22,5.97-.64,11.44,1.24,15.82,5.45,5.3,5.09,8.27,13.12,7.75,20.95-.27,11.29-4.95,22.72-12.81,31.3-5.48,6.04-11.9,10-18.1,13.82-4.23,2.65-6.25,3.92-8.49,5.34l-.56.35c-1.62,1.02-3.44,2.17-6.32,3.98-.38.24-.82.37-1.27.37ZM136.94,69.41s0,0,0,0c0,0,0,0,0,0Z"/>
      </g>
      <g>
        <path class="cls-1" d="M85.16,40.58l-.91-1.52L143.36,3.72c.74-.44,1.56-.83,2.44-1.15,4.67-1.71,9.71-1.37,14.2.96l-.82,1.58c-4.04-2.09-8.57-2.4-12.77-.86-.78.28-1.49.62-2.13,1l-59.11,35.34Z"/>
        <path class="cls-1" d="M85.16,42.08c-.12,0-.25-.02-.37-.05-.39-.1-.72-.34-.92-.69l-.91-1.52c-.42-.71-.19-1.63.52-2.06L142.59,2.43c.82-.49,1.72-.92,2.69-1.27,5.07-1.85,10.54-1.49,15.4,1.03.74.38,1.02,1.29.64,2.02l-.82,1.58c-.18.35-.5.62-.88.74-.38.12-.79.09-1.14-.1-3.66-1.9-7.77-2.18-11.57-.79-.69.25-1.32.55-1.88.88l-59.11,35.34c-.23.14-.5.21-.77.21Z"/>
      </g>
      <g>
        <path class="cls-1" d="M138.55,207.93c-.32,0-.63-.16-.81-.44-.29-.45-.16-1.05.28-1.34l62.08-40.34c1.67-1.1,3.39-2.2,5.05-3.26,5.49-3.51,11.18-7.13,16.06-11.57,12.03-10.96,18.21-27.96,15.75-43.31-1.23-9.38-9.29-18.91-19.31-18.19-5.46.13-10.27,3.09-14.92,5.95l-1.03.63c-3.44,2.16-5.28,3.31-6.75,4.24-2.25,1.41-3.67,2.29-8.69,5.48-.45.29-1.05.15-1.34-.3-.29-.45-.15-1.05.3-1.34,5.03-3.18,6.45-4.07,8.7-5.48,1.48-.92,3.31-2.07,6.76-4.24l1.03-.63c4.87-3,9.91-6.1,15.85-6.24,11.06-.8,19.98,9.62,21.32,19.84,2.56,15.95-3.86,33.63-16.36,45.02-5.01,4.55-10.76,8.22-16.32,11.77-1.66,1.06-3.37,2.15-5.03,3.25l-62.08,40.35c-.16.11-.35.16-.53.16Z"/>
        <path class="cls-1" d="M138.55,209.43c-.84,0-1.61-.42-2.07-1.12-.36-.55-.48-1.21-.35-1.86.14-.65.52-1.2,1.07-1.56l62.08-40.34c1.64-1.08,3.34-2.17,4.99-3.22,5.51-3.52,11.14-7.11,15.93-11.46,11.66-10.63,17.66-27.1,15.28-41.96-1.15-8.73-8.54-17.6-17.72-16.93-5.12.12-9.76,2.98-14.24,5.73l-1.03.63c-3.42,2.15-5.26,3.3-6.73,4.22l-.89-1.21.8,1.27c-2.2,1.38-3.64,2.28-8.6,5.42-1.15.73-2.68.38-3.41-.77-.73-1.15-.39-2.68.77-3.41,4.91-3.11,6.38-4.03,8.54-5.38l.32-.2c1.45-.91,3.28-2.05,6.61-4.14l1.05-.64c5.04-3.1,10.26-6.31,16.6-6.46,11.88-.85,21.41,10.24,22.85,21.15,2.63,16.4-3.97,34.6-16.84,46.33-5.1,4.63-10.91,8.34-16.52,11.92-1.68,1.07-3.37,2.15-5.01,3.23l-62.09,40.35c-.41.26-.87.4-1.34.4Z"/>
      </g>
      <g>
        <g>
          <line class="cls-2" x1="158.84" y1="3.96" x2="217.6" y2="29.02"/>
          <path class="cls-1" d="M217.6,30.52c-.2,0-.4-.04-.59-.12l-58.76-25.06c-.76-.33-1.12-1.21-.79-1.97.32-.76,1.21-1.11,1.97-.79l58.76,25.06c.76.33,1.12,1.21.79,1.97-.24.57-.8.91-1.38.91Z"/>
        </g>
        <g>
          <rect class="cls-1" x="187.33" y="-15.45" width="1.78" height="63.88" transform="translate(99.21 183.15) rotate(-66.9)"/>
          <path class="cls-1" d="M217.25,31.34c-.2,0-.4-.04-.59-.12l-58.76-25.06c-.37-.16-.65-.45-.8-.82s-.14-.78.01-1.15l.7-1.64c.33-.76,1.21-1.11,1.97-.79l58.76,25.06c.76.33,1.12,1.21.79,1.97l-.7,1.64c-.16.37-.45.65-.82.8-.18.07-.37.11-.56.11Z"/>
        </g>
      </g>
      <g>
        <path class="cls-1" d="M229.8,93s-1.9-4.22-11.83-9.79l-7.9,7.08s11.45-4.52,19.73,2.72Z"/>
        <path class="cls-1" d="M229.8,94.5c-.35,0-.71-.12-.99-.37-7.47-6.53-18.09-2.49-18.19-2.45-.68.26-1.44,0-1.82-.61-.38-.62-.26-1.42.28-1.9l7.9-7.08c.48-.43,1.17-.51,1.74-.19,10.07,5.66,12.25,10.01,12.46,10.48.29.64.09,1.4-.47,1.82-.27.2-.58.3-.89.3ZM218.18,87.37c1.34,0,2.77.11,4.23.4-1.18-.85-2.58-1.76-4.24-2.73l-2.77,2.48c.87-.1,1.8-.16,2.78-.16Z"/>
      </g>
      <path d="M181.9,124.73l-10.21,5.92c.03,6.04-.12,16.86.04,22.89l.16,5.59,5.16-2.82c.63-.33,1.28-.7,1.94-1.07,12.23-6.81,28.68-16.84,28.84-30.53-.2-16.35-18.33-3.56-25.93.01Z"/>
      <path d="M175.75,74.64l-10.21,5.92c0,1.46,0,3.21,0,5.1,3.39,1.83,6.52,4.08,9.83,5.75.02-.02.05-.04.07-.07,0,.03,0,.06,0,.1,0,0,0,0,0,0,0,0,0,0,0,0-.46,4.19-.56,8.39-.58,12.58,11.94-6.77,26.68-16.45,26.84-29.4-.2-16.35-18.33-3.56-25.93.01Z"/>
      <polygon class="cls-1" points=".43 64.56 112.76 129.8 111.82 162.62 75.17 141.57 74.82 244.44 37.19 222.69 37.54 119.82 0 99.45 .43 64.56"/>
      <g>
        <polygon class="cls-1" points="112.2 131.42 111.43 130.17 173.99 91.6 63.58 28.34 2.36 65.92 1.62 64.65 63.57 26.64 63.94 26.85 176.86 91.56 112.2 131.42"/>
        <path class="cls-1" d="M112.2,132.92c-.12,0-.23-.01-.35-.04-.39-.09-.72-.33-.93-.67l-.77-1.25c-.43-.71-.22-1.63.49-2.06l60.41-37.24L63.61,30.08,3.14,67.2c-.34.21-.76.27-1.15.18-.39-.1-.73-.35-.93-.7l-.74-1.27c-.41-.7-.19-1.61.51-2.04L62.79,25.36c.47-.29,1.05-.3,1.53-.02l.37.21,112.92,64.71c.46.26.75.75.75,1.28,0,.53-.26,1.02-.71,1.3l-64.66,39.86c-.24.15-.51.22-.79.22Z"/>
      </g>
      <g>
        <polygon class="cls-1" points="112.3 161.45 111.55 160.18 174.41 124.12 175.16 125.38 112.3 161.45"/>
        <path class="cls-1" d="M112.3,162.95c-.51,0-1.01-.26-1.29-.74l-.75-1.27c-.2-.35-.26-.76-.16-1.15.1-.39.36-.72.7-.92l62.86-36.07c.71-.41,1.62-.17,2.04.54l.75,1.27c.2.35.26.76.16,1.15-.1.39-.36.72-.7.92l-62.86,36.07c-.24.13-.49.2-.75.2Z"/>
      </g>
      <g>
        <g>
          <path class="cls-2" d="M175.43,91.81l-.64,33.57.64-33.57Z"/>
          <path class="cls-1" d="M174.79,126.88s-.02,0-.03,0c-.82-.02-1.47-.68-1.47-1.5,0,0,0-.02,0-.03l.64-33.57c.02-.83.7-1.5,1.53-1.47.82.02,1.47.68,1.47,1.5,0,0,0,.02,0,.03l-.64,33.57c-.02.82-.68,1.47-1.5,1.47Z"/>
        </g>
        <g>
          <polygon class="cls-1" points="175.21 125.23 174.05 125.36 174.69 91.79 176.16 91.82 175.21 125.23"/>
          <path class="cls-1" d="M174.05,126.86c-.37,0-.73-.14-1.01-.39-.32-.29-.5-.71-.49-1.14l.64-33.57c.02-.83.69-1.48,1.53-1.47l1.47.03c.4,0,.78.17,1.06.46s.43.68.41,1.08l-.95,33.41c-.02.74-.58,1.36-1.32,1.45l-1.16.14c-.06,0-.12.01-.18.01Z"/>
        </g>
      </g>
      <g>
        <polygon class="cls-1" points="75.19 243.3 74.31 241.58 136.98 207 136.98 147.51 138.77 147.51 138.77 208.04 138.32 208.3 75.19 243.3"/>
        <path class="cls-1" d="M75.19,244.8c-.15,0-.29-.02-.44-.07-.39-.12-.71-.39-.9-.75l-.88-1.73c-.37-.72-.1-1.6.61-2l61.9-34.15v-58.61c0-.83.67-1.5,1.5-1.5h1.78c.83,0,1.5.67,1.5,1.5v60.54c0,.54-.29,1.04-.76,1.3l-.45.26-63.14,35.02c-.22.12-.48.19-.73.19Z"/>
      </g>
      <polygon class="cls-1" points="47.5 91.81 137.82 70.65 84.01 39.74 47.5 91.81"/>
    </g>
  </g>
</svg>