<svg width="146" height="123" viewBox="0 0 146 123" fill="none" xmlns="http://www.w3.org/2000/svg">
<g clip-path="url(#clip0_402_69)">
<path d="M42.5979 123C37.4092 123 32.8099 121.615 29.0036 118.835C20.5625 112.664 17.5184 100.701 20.4285 85.148C23.1141 70.7933 30.6121 54.7027 41.5352 39.8456C52.4601 24.9869 65.5924 13.02 78.5165 6.14616C92.5177 -1.30092 104.877 -2.00296 113.318 4.16564C121.759 10.3358 124.804 22.2995 121.893 37.8522C119.206 52.2086 111.711 68.2975 100.786 83.1546C89.8612 98.0133 76.7288 109.98 63.8047 116.854C56.1162 120.944 48.9202 123 42.5979 123ZM49.1592 45.4184C39.0564 59.1597 32.1527 73.8832 29.7206 86.8757C27.5454 98.5012 29.3201 107.378 34.5928 111.231C39.8654 115.084 48.8911 114.102 59.3541 108.536C71.0508 102.314 83.0576 91.3214 93.1604 77.5802C103.263 63.8389 110.167 49.1154 112.599 36.1213C114.774 24.4958 112.999 15.6188 107.727 11.7657C102.456 7.91253 93.4301 8.89474 82.9655 14.4611C71.2688 20.6829 59.262 31.6756 49.1592 45.4168V45.4184Z" fill="#ED2690"/>
<path d="M118.587 77.6749L105.093 68.2538L91.9363 78.1386C91.032 78.8181 89.7837 77.947 90.1147 76.8666L94.932 61.1577L81.4378 51.7365C80.5093 51.0892 80.955 49.6353 82.0887 49.6159L98.5606 49.3293L103.378 33.6204C103.709 32.54 105.233 32.5142 105.602 33.5818L110.965 49.1136L127.437 48.8269C128.569 48.8076 129.066 50.2439 128.16 50.9234L115.004 60.8083L120.367 76.3401C120.735 77.4076 119.519 78.3222 118.59 77.6749H118.587Z" fill="#ED2690"/>
<path d="M95.4164 77.0422C94.265 77.0422 93.112 76.6879 92.0946 75.9778C90.0033 74.5174 89.1328 72.0007 89.8805 69.5645L92.1672 62.1061L85.7609 57.6331C83.6696 56.1726 82.7992 53.6559 83.5469 51.2197C84.293 48.7851 86.4263 47.183 88.9794 47.1379L96.8004 47.001L99.0871 39.5427C99.8332 37.1081 101.966 35.506 104.52 35.4609C107.074 35.4061 109.261 36.9439 110.091 39.3511L112.638 46.7257L120.459 46.5888C123.023 46.5454 125.198 48.0718 126.03 50.479C126.862 52.8862 126.082 55.4319 124.042 56.9648L117.796 61.6585L120.342 69.0331C121.174 71.4403 120.392 73.986 118.353 75.5189C116.313 77.0518 113.644 77.0985 111.553 75.6365L105.145 71.1634L98.8981 75.8571C97.8501 76.6444 96.6357 77.0389 95.4197 77.0389L95.4164 77.0422ZM104.623 40.1755C104.623 40.1755 104.608 40.1755 104.6 40.1755C104.313 40.1803 103.801 40.285 103.606 40.9226L100.314 51.6545L89.0602 51.8493C88.39 51.8606 88.1494 52.3227 88.0654 52.5964C87.9814 52.8701 87.9217 53.387 88.4707 53.7702L97.6918 60.2077L94.4006 70.9412C94.2052 71.5804 94.5702 71.9508 94.806 72.115C95.0418 72.2793 95.5166 72.495 96.0511 72.0941L105.04 65.3394L114.259 71.7769C114.808 72.1601 115.275 71.9282 115.504 71.7543C115.733 71.582 116.087 71.1988 115.869 70.5676L112.205 59.9565L121.195 53.2018C121.73 52.7993 121.652 52.2857 121.558 52.0135C121.465 51.743 121.21 51.3034 120.538 51.3018L109.284 51.4983L105.619 40.8872C105.408 40.2721 104.914 40.1755 104.621 40.1755H104.623Z" fill="#F4F4F5"/>
<path d="M51.328 96.7654L32.6856 83.7503L14.5115 97.4062C13.528 98.1453 12.1731 97.1985 12.5316 96.0247L19.185 74.3259L0.544216 61.3109C-0.463482 60.6072 0.0209881 59.0276 1.24993 59.0067L24.0039 58.6106L30.6573 36.9118C31.0174 35.738 32.6727 35.709 33.0732 36.8699L40.4823 58.324L63.2363 57.9279C64.4668 57.9069 65.0062 59.4672 64.0228 60.2063L45.8487 73.8622L53.2578 95.3162C53.6583 96.4756 52.3357 97.469 51.328 96.7654Z" fill="#ED2690"/>
<path d="M18.2936 96.0116C17.084 96.0116 15.8712 95.6397 14.8022 94.8941C12.6027 93.3596 11.6903 90.7141 12.4751 88.1539L16.4235 75.2757L5.35984 67.5517C3.16196 66.0172 2.24793 63.3717 3.03277 60.8115C3.81761 58.2529 6.0591 56.5687 8.74306 56.522L22.2485 56.2869L26.1969 43.4087C26.9818 40.8501 29.2232 39.1658 31.9056 39.1191C31.9443 39.1191 31.9815 39.1191 32.0202 39.1191C34.6558 39.1191 36.9005 40.7148 37.7628 43.209L42.1602 55.9423L55.6656 55.7072C58.3609 55.6557 60.6476 57.2659 61.5213 59.7955C62.3949 62.325 61.5746 65.0012 59.4316 66.613L48.644 74.7186L53.0414 87.4519C53.9151 89.9831 53.0947 92.6592 50.9517 94.2694C48.8072 95.8796 46.0021 95.9295 43.8042 94.3934L32.7405 86.6693L21.953 94.775C20.8516 95.6026 19.5758 96.018 18.2968 96.018L18.2936 96.0116ZM32.0122 43.8273C32.0041 43.8273 31.9944 43.8273 31.9863 43.8273C31.6908 43.8321 30.9738 43.9352 30.7154 44.7821L25.7625 60.9355L8.82381 61.2301C7.93561 61.2462 7.63847 61.9032 7.55127 62.1866C7.46406 62.47 7.34294 63.1801 8.06965 63.6873L21.9465 73.3757L16.9936 89.529C16.7336 90.376 17.2697 90.8606 17.512 91.0297C17.7542 91.1988 18.3953 91.5353 19.1043 91.0023L32.6339 80.8373L46.5108 90.5257C47.2375 91.0329 47.8657 90.6755 48.1031 90.4983C48.3388 90.3212 48.8572 89.8172 48.5681 88.9799L43.0533 73.0086L56.5829 62.8435C57.2918 62.3106 57.1449 61.6037 57.048 61.3251C56.9511 61.0466 56.6281 60.4041 55.7431 60.4138L38.8044 60.7084L33.2896 44.7371C33.0086 43.9223 32.3206 43.8257 32.0106 43.8257L32.0122 43.8273Z" fill="#F4F4F5"/>
<path d="M15.7356 41.4717C19.8124 41.4717 23.1173 38.1765 23.1173 34.1116C23.1173 30.0467 19.8124 26.7515 15.7356 26.7515C11.6588 26.7515 8.35388 30.0467 8.35388 34.1116C8.35388 38.1765 11.6588 41.4717 15.7356 41.4717Z" fill="#ED2690"/>
<path d="M37.9905 37.8198C41.056 37.8198 43.541 35.3421 43.541 32.2857C43.541 29.2292 41.056 26.7515 37.9905 26.7515C34.9251 26.7515 32.4401 29.2292 32.4401 32.2857C32.4401 35.3421 34.9251 37.8198 37.9905 37.8198Z" fill="#ED2690"/>
<path d="M139.815 31.2858C143.23 31.2858 145.998 28.5255 145.998 25.1205C145.998 21.7154 143.23 18.9551 139.815 18.9551C136.4 18.9551 133.631 21.7154 133.631 25.1205C133.631 28.5255 136.4 31.2858 139.815 31.2858Z" fill="#ED2690"/>
<path d="M132.367 43.1015C134.739 43.1015 136.661 41.1846 136.661 38.82C136.661 36.4555 134.739 34.5386 132.367 34.5386C129.995 34.5386 128.073 36.4555 128.073 38.82C128.073 41.1846 129.995 43.1015 132.367 43.1015Z" fill="#ED2690"/>
</g>
<defs>
<clipPath id="clip0_402_69">
<rect width="146" height="123" fill="white"/>
</clipPath>
</defs>
</svg>
